<svg width="48" height="44" viewBox="0 0 48 44" fill="none" xmlns="http://www.w3.org/2000/svg">
<path d="M42.2216 15.3335H30.666V37.5557H44.2216C45.3261 37.5557 46.2216 36.6603 46.2216 35.5557V19.3335C46.2216 17.1244 44.4307 15.3335 42.2216 15.3335Z" fill="#9BBDF4" stroke="#9BBDF4" stroke-width="3"/>
<path d="M26.2218 2H1.77734V35.5556C1.77734 36.6601 2.67277 37.5556 3.77734 37.5556H26.2218V2Z" fill="#4285F4"/>
<path d="M1.77734 2V0.5C0.948917 0.5 0.277344 1.17157 0.277344 2L1.77734 2ZM26.2218 2H27.7218C27.7218 1.17157 27.0502 0.5 26.2218 0.5V2ZM26.2218 37.5556V39.0556H27.7218V37.5556H26.2218ZM1.77734 3.5H26.2218V0.5H1.77734V3.5ZM24.7218 2V37.5556H27.7218V2H24.7218ZM3.27734 35.5556V2H0.277344V35.5556H3.27734ZM26.2218 36.0556H3.77734V39.0556H26.2218V36.0556ZM0.277344 35.5556C0.277344 37.4886 1.84435 39.0556 3.77734 39.0556V36.0556C3.5012 36.0556 3.27734 35.8317 3.27734 35.5556H0.277344Z" fill="#4285F4"/>
<circle cx="10.6671" cy="37.5558" r="4.44444" fill="#24282C" stroke="#24282C" stroke-width="3"/>
<circle cx="37.3331" cy="37.5558" r="4.44444" fill="#24282C" stroke="#24282C" stroke-width="3"/>
<path d="M1.77734 11.6113H0.277344V14.6113H1.77734V11.6113ZM8.44401 14.6113C9.27244 14.6113 9.94401 13.9398 9.94401 13.1113C9.94401 12.2829 9.27244 11.6113 8.44401 11.6113V14.6113ZM1.77734 14.6113H8.44401V11.6113H1.77734V14.6113Z" fill="white"/>
<path d="M1.77734 20.5H0.277344V23.5H1.77734V20.5ZM12.8885 23.5C13.7169 23.5 14.3885 22.8284 14.3885 22C14.3885 21.1716 13.7169 20.5 12.8885 20.5V23.5ZM1.77734 23.5H12.8885V20.5H1.77734V23.5Z" fill="white"/>
</svg>
