<svg width="52" height="51" viewBox="0 0 52 51" fill="none" xmlns="http://www.w3.org/2000/svg">
<path d="M11.7118 12.4255C9.72968 14.5618 8.29038 17.0972 7.45232 19.8134L14.2577 23.7425C15.591 24.5123 15.591 26.4368 14.2577 27.2066L7.44867 31.1378C7.86485 32.481 8.43612 33.7991 9.16887 35.0682C9.90159 36.3373 10.7574 37.491 11.7125 38.523L18.5216 34.5918C19.8549 33.822 21.5216 34.7842 21.5216 36.3238L21.5216 44.1822C24.293 44.8145 27.2083 44.8357 30.0495 44.1873L30.0495 36.324C30.0495 34.7844 31.7162 33.8222 33.0495 34.592L39.8594 38.5236C41.8415 36.3872 43.2808 33.8519 44.1189 31.1357L37.3133 27.2065C35.98 26.4367 35.98 24.5122 37.3133 23.7424L44.1225 19.8111C43.7063 18.468 43.135 17.15 42.4023 15.8809C41.6696 14.6117 40.8137 13.4579 39.8586 12.4259L33.0495 16.3571C31.7162 17.1269 30.0495 16.1647 30.0495 14.6251L30.0495 6.76688C27.2781 6.13454 24.3628 6.11336 21.5216 6.76174L21.5216 14.625C21.5216 16.1646 19.8549 17.1269 18.5216 16.3571L11.7118 12.4255Z" fill="#4285F4" stroke="#4285F4" stroke-width="3" stroke-linejoin="round"/>
<circle cx="26.2639" cy="25.2639" r="4.26385" fill="#9BBDF4" stroke="white" stroke-width="2"/>
</svg>
