<svg width="37" height="52" viewBox="0 0 37 52" fill="none" xmlns="http://www.w3.org/2000/svg">
<path d="M18.33 45.9003L25.8495 50.9133V32.0103C24.4679 32.0714 23.1617 32.7024 22.2535 33.7698L22.1479 33.8938C20.1462 36.2463 16.5138 36.2463 14.5121 33.8938L14.4065 33.7697C13.4983 32.7024 12.1921 32.0714 10.8105 32.0103V50.9133L18.33 45.9003Z" fill="#4285F4"/>
<path d="M25.8495 50.9133L25.2948 51.7453C25.6016 51.9499 25.9962 51.969 26.3213 51.7949C26.6465 51.6209 26.8495 51.2821 26.8495 50.9133H25.8495ZM18.33 45.9003L18.8847 45.0682C18.5488 44.8443 18.1112 44.8443 17.7753 45.0682L18.33 45.9003ZM10.8105 50.9133H9.81055C9.81055 51.2821 10.0135 51.6209 10.3387 51.7949C10.6638 51.969 11.0584 51.9499 11.3652 51.7453L10.8105 50.9133ZM22.2535 33.7698L21.4919 33.1217L21.4919 33.1217L22.2535 33.7698ZM22.1479 33.8938L22.9095 34.5419L22.9095 34.5419L22.1479 33.8938ZM14.5121 33.8938L13.7505 34.5419L13.7505 34.5419L14.5121 33.8938ZM14.4065 33.7697L15.1681 33.1217L15.1681 33.1217L14.4065 33.7697ZM10.8105 32.0103L10.8547 31.0112L9.81055 30.965V32.0103H10.8105ZM25.8495 32.0103H26.8495V30.965L25.8053 31.0112L25.8495 32.0103ZM26.4042 50.0812L18.8847 45.0682L17.7753 46.7324L25.2948 51.7453L26.4042 50.0812ZM17.7753 45.0682L10.2558 50.0812L11.3652 51.7453L18.8847 46.7324L17.7753 45.0682ZM21.4919 33.1217L21.3863 33.2458L22.9095 34.5419L23.0151 34.4178L21.4919 33.1217ZM15.2737 33.2458L15.1681 33.1217L13.6449 34.4178L13.7505 34.5419L15.2737 33.2458ZM21.3863 33.2458C19.7839 35.129 16.8761 35.129 15.2737 33.2458L13.7505 34.5419C16.1515 37.3637 20.5085 37.3637 22.9095 34.5419L21.3863 33.2458ZM15.1681 33.1217C14.0787 31.8414 12.5119 31.0845 10.8547 31.0112L10.7664 33.0093C11.8723 33.0582 12.9179 33.5634 13.6449 34.4178L15.1681 33.1217ZM11.8105 50.9133V32.0103H9.81055V50.9133H11.8105ZM25.8053 31.0112C24.1481 31.0845 22.5813 31.8414 21.4919 33.1217L23.0151 34.4178C23.7421 33.5634 24.7877 33.0582 25.8937 33.0093L25.8053 31.0112ZM24.8495 32.0103V50.9133H26.8495V32.0103H24.8495Z" fill="#4285F4"/>
<path d="M14.5114 2.76436C16.5131 0.411878 20.1455 0.41188 22.1472 2.76437L22.2528 2.88846C23.2969 4.11558 24.8672 4.76602 26.4732 4.63664L26.6357 4.62355C29.7145 4.37551 32.283 6.94402 32.035 10.0229L32.0219 10.1853C31.8925 11.7913 32.543 13.3616 33.7701 14.4058L33.8942 14.5114C36.2467 16.5131 36.2467 20.1455 33.8942 22.1472L33.7701 22.2528C32.543 23.2969 31.8925 24.8672 32.0219 26.4732L32.035 26.6357C32.283 29.7145 29.7145 32.283 26.6357 32.035L26.4732 32.0219C26.2641 32.0051 26.0556 32.0014 25.8487 32.0106C24.4672 32.0717 23.1609 32.7028 22.2528 33.7701L22.1472 33.8942C20.1455 36.2467 16.5131 36.2467 14.5114 33.8942L14.4058 33.7701C13.4976 32.7028 12.1914 32.0717 10.8098 32.0106C10.603 32.0014 10.3944 32.0051 10.1853 32.0219L10.0229 32.035C6.94402 32.283 4.37551 29.7145 4.62355 26.6357L4.63664 26.4732C4.76602 24.8672 4.11557 23.2969 2.88846 22.2528L2.76436 22.1472C0.411878 20.1455 0.41188 16.5131 2.76437 14.5114L2.88846 14.4058C4.11558 13.3616 4.76602 11.7913 4.63664 10.1853L4.62355 10.0229C4.37551 6.94401 6.94402 4.37551 10.0229 4.62355L10.1853 4.63664C11.7913 4.76602 13.3616 4.11557 14.4058 2.88846L14.5114 2.76436Z" fill="#9BBDF4" stroke="#9BBDF4" stroke-width="2"/>
<path d="M23.3424 15.8223L15.8229 23.3417L13.3164 20.8352" stroke="white" stroke-width="3" stroke-linecap="round" stroke-linejoin="round"/>
</svg>
