<svg width="47" height="45" viewBox="0 0 47 45" fill="none" xmlns="http://www.w3.org/2000/svg">
<path d="M36.7443 41H13V18.1741H13.9352C14.6008 18.1741 15.2229 17.8429 15.5945 17.2907L23.6467 5.32509C24.2042 4.49674 25.1372 4 26.1356 4H30.2815C30.8993 4 31.3693 4.55463 31.2679 5.16407L29.1538 17.875H40.5614C41.8232 17.875 42.7697 19.0291 42.5227 20.2665L38.7057 39.3914C38.519 40.3267 37.698 41 36.7443 41Z" fill="#9BBDF4"/>
<path d="M13 41H12V42H13V41ZM29.1538 17.875L28.1674 17.7109C28.1192 18.0008 28.2009 18.2973 28.3909 18.5215C28.5809 18.7457 28.86 18.875 29.1538 18.875V17.875ZM31.2679 5.16407L32.2544 5.32813V5.32813L31.2679 5.16407ZM23.6467 5.32509L22.8171 4.76678V4.76678L23.6467 5.32509ZM15.5945 17.2907L16.4241 17.849L15.5945 17.2907ZM38.7057 39.3914L39.6863 39.5872L38.7057 39.3914ZM42.5227 20.2665L41.542 20.0707L42.5227 20.2665ZM13 18.1741V17.1741H12V18.1741H13ZM13 42H36.7443V40H13V42ZM40.5614 16.875H29.1538V18.875H40.5614V16.875ZM30.1403 18.0391L32.2544 5.32813L30.2815 5L28.1674 17.7109L30.1403 18.0391ZM30.2815 3H26.1356V5H30.2815V3ZM22.8171 4.76678L14.7648 16.7324L16.4241 17.849L24.4764 5.88339L22.8171 4.76678ZM39.6863 39.5872L43.5034 20.4622L41.542 20.0707L37.725 39.1957L39.6863 39.5872ZM13.9352 17.1741H13V19.1741H13.9352V17.1741ZM12 18.1741V41H14V18.1741H12ZM26.1356 3C24.8044 3 23.5604 3.66231 22.8171 4.76678L24.4764 5.88339C24.848 5.33116 25.47 5 26.1356 5V3ZM32.2544 5.32813C32.4571 4.10927 31.5171 3 30.2815 3V5V5L32.2544 5.32813ZM40.5614 18.875C41.1923 18.875 41.6655 19.452 41.542 20.0707L43.5034 20.4622C43.8738 18.6061 42.454 16.875 40.5614 16.875V18.875ZM14.7648 16.7324C14.579 17.0085 14.268 17.1741 13.9352 17.1741V19.1741C14.9337 19.1741 15.8667 18.6773 16.4241 17.849L14.7648 16.7324ZM36.7443 42C38.1748 42 39.4063 40.99 39.6863 39.5872L37.725 39.1957C37.6317 39.6633 37.2212 40 36.7443 40V42Z" fill="#9BBDF4"/>
<path d="M5 39V18H12V41H7C5.89543 41 5 40.1046 5 39Z" fill="#4285F4" stroke="#4285F4" stroke-width="2" stroke-linecap="round" stroke-linejoin="round"/>
</svg>
