<svg width="42" height="42" viewBox="0 0 42 42" fill="none" xmlns="http://www.w3.org/2000/svg">
<path d="M19.5099 1.66452C20.3048 0.776514 21.6952 0.776513 22.4901 1.66452L26.3059 5.92691C26.7111 6.37948 27.2999 6.62339 27.9064 6.58987L33.6186 6.27408C34.8086 6.20829 35.7917 7.19138 35.7259 8.38143L35.4101 14.0936C35.3766 14.7001 35.6205 15.2889 36.0731 15.6941L40.3355 19.5099C41.2235 20.3048 41.2235 21.6952 40.3355 22.4901L36.0731 26.3059C35.6205 26.7111 35.3766 27.2999 35.4101 27.9064L35.7259 33.6186C35.7917 34.8086 34.8086 35.7917 33.6186 35.7259L27.9064 35.4101C27.2999 35.3766 26.7111 35.6205 26.3059 36.0731L22.4901 40.3355C21.6952 41.2235 20.3048 41.2235 19.5099 40.3355L15.6941 36.0731C15.2889 35.6205 14.7001 35.3766 14.0936 35.4101L8.38143 35.7259C7.19138 35.7917 6.20829 34.8086 6.27408 33.6186L6.58987 27.9064C6.62339 27.2999 6.37948 26.7111 5.92691 26.3059L1.66452 22.4901C0.776514 21.6952 0.776513 20.3048 1.66452 19.5099L5.92691 15.6941C6.37948 15.2889 6.62339 14.7001 6.58987 14.0936L6.27408 8.38143C6.20829 7.19138 7.19138 6.20829 8.38143 6.27408L14.0936 6.58987C14.7001 6.62339 15.2889 6.37948 15.6941 5.92691L19.5099 1.66452Z" fill="#4285F4" stroke="#4285F4" stroke-width="2"/>
<rect x="15.75" y="15.75" width="1" height="1" stroke="white" stroke-width="3" stroke-linejoin="round"/>
<rect x="26.25" y="26.25" width="1" height="1" stroke="white" stroke-width="3" stroke-linejoin="round"/>
<path d="M27.2992 14.7002L14.6992 27.3002" stroke="white" stroke-width="3" stroke-linecap="round" stroke-linejoin="round"/>
</svg>
