<?xml version="1.0" encoding="utf-8"?><svg xmlns="http://www.w3.org/2000/svg" xmlns:xlink="http://www.w3.org/1999/xlink"><symbol viewBox="0 0 8 6" id="arrow" xmlns="http://www.w3.org/2000/svg"><path fill-rule="evenodd" clip-rule="evenodd" d="M7.454 1.972A.862.862 0 0 0 6.235.752L4 2.988 1.765.753a.862.862 0 0 0-1.22 1.219L3.39 4.817a.862.862 0 0 0 1.22 0l2.844-2.845z"/></symbol><symbol viewBox="0 0 8 6" id="arrow-light" xmlns="http://www.w3.org/2000/svg"><path fill-rule="evenodd" clip-rule="evenodd" d="M7.622 1.804A.625.625 0 0 0 6.738.92L4 3.658 1.262.92a.625.625 0 0 0-.884.884l3.18 3.18a.625.625 0 0 0 .884 0l3.18-3.18z"/></symbol><symbol viewBox="0 0 16 9" id="arrow-long" xmlns="http://www.w3.org/2000/svg"><path d="M15.484 4.146a.5.5 0 0 1 0 .708l-3.182 3.182a.5.5 0 1 1-.707-.708L14.423 4.5l-2.828-2.828a.5.5 0 1 1 .707-.708l3.182 3.182zM15.13 5H.717V4H15.13v1z"/></symbol><symbol viewBox="0 0 20 20" id="chart" xmlns="http://www.w3.org/2000/svg"><path fill-rule="evenodd" clip-rule="evenodd" d="M1.75 17.5a.75.75 0 0 1 .75-.75h15a.75.75 0 0 1 0 1.5h-15a.75.75 0 0 1-.75-.75z"/><path fill-rule="evenodd" clip-rule="evenodd" d="M11.944 18.25a.75.75 0 0 1-.75-.75v-10a.75.75 0 0 1 .75-.75H15c.874 0 1.583.71 1.583 1.583V17.5a.75.75 0 0 1-.75.75h-3.889zm.75-1.5h2.39V8.333A.084.084 0 0 0 15 8.25h-2.306v8.5z"/><path fill-rule="evenodd" clip-rule="evenodd" d="M8.056 18.25a.75.75 0 0 1-.75-.75V3.333c0-.874.709-1.583 1.583-1.583h2.223c.874 0 1.583.71 1.583 1.583V17.5a.75.75 0 0 1-.75.75h-3.89zm.75-1.5h2.389V3.333a.084.084 0 0 0-.083-.083H8.889a.084.084 0 0 0-.083.083V16.75z"/><path fill-rule="evenodd" clip-rule="evenodd" d="M4.167 18.25a.75.75 0 0 1-.75-.75V5.833c0-.874.709-1.583 1.583-1.583h3.056a.75.75 0 0 1 .75.75v12.5a.75.75 0 0 1-.75.75h-3.89zm.75-1.5h2.389v-11H5a.084.084 0 0 0-.083.083V16.75z"/></symbol><symbol viewBox="0 0 20 20" id="clock" xmlns="http://www.w3.org/2000/svg"><path fill-rule="evenodd" clip-rule="evenodd" d="M13.189 2.3A8.333 8.333 0 1 0 6.811 17.7 8.333 8.333 0 0 0 13.189 2.3zM10 3.334a6.666 6.666 0 1 1 0 13.333 6.666 6.666 0 0 1 0-13.333zM10 5a.833.833 0 0 0-.833.833V10c0 .278.139.539.37.693l2.5 1.667a.833.833 0 0 0 .925-1.387l-2.129-1.42v-3.72A.833.833 0 0 0 10 5z"/></symbol><symbol viewBox="0 0 24 24" id="copy" xmlns="http://www.w3.org/2000/svg"><path fill-rule="evenodd" clip-rule="evenodd" d="M11 9.75c-.69 0-1.25.56-1.25 1.25v8c0 .69.56 1.25 1.25 1.25h8c.69 0 1.25-.56 1.25-1.25v-8c0-.69-.56-1.25-1.25-1.25h-8zM8.25 11A2.75 2.75 0 0 1 11 8.25h8A2.75 2.75 0 0 1 21.75 11v8A2.75 2.75 0 0 1 19 21.75h-8A2.75 2.75 0 0 1 8.25 19v-8z"/><path fill-rule="evenodd" clip-rule="evenodd" d="M5 3.75c-.69 0-1.25.56-1.25 1.25v8c0 .69.56 1.25 1.25 1.25h8c.69 0 1.25-.56 1.25-1.25V5c0-.69-.56-1.25-1.25-1.25H5zM2.25 5A2.75 2.75 0 0 1 5 2.25h8A2.75 2.75 0 0 1 15.75 5v8A2.75 2.75 0 0 1 13 15.75H5A2.75 2.75 0 0 1 2.25 13V5z"/></symbol><symbol viewBox="0 0 20 20" id="email" xmlns="http://www.w3.org/2000/svg"><path fill-rule="evenodd" clip-rule="evenodd" d="M1.763 6.292a2.876 2.876 0 0 1 2.875-2.875h10.736a2.876 2.876 0 0 1 1.614 5.256m0 0l-3.755 2.546a5.75 5.75 0 0 1-6.453 0L3.025 8.673a2.876 2.876 0 0 1-1.262-2.38m1.5 0c0 .456.225.882.604 1.138l3.755 2.546a4.25 4.25 0 0 0 4.769 0l3.755-2.545a1.375 1.375 0 0 0-.772-2.516H4.638c-.76 0-1.375.616-1.375 1.376z"/><path fill-rule="evenodd" clip-rule="evenodd" d="M2.5 5.542a.75.75 0 0 1 .75.75v7.875c0 .966.783 1.75 1.75 1.75h10a1.75 1.75 0 0 0 1.75-1.75V6.293a.75.75 0 0 1 1.5 0v7.874a3.25 3.25 0 0 1-3.25 3.25H5a3.25 3.25 0 0 1-3.25-3.25V6.292a.75.75 0 0 1 .75-.75z"/></symbol><symbol viewBox="0 0 24 24" id="eye" xmlns="http://www.w3.org/2000/svg"><path fill-rule="evenodd" clip-rule="evenodd" d="M7.416 7.547C5.96 8.674 4.678 10.223 3.778 11.89l-.66-.357.66.356a.237.237 0 0 0 0 .223c.9 1.665 2.181 3.215 3.639 4.342 1.461 1.13 3.051 1.797 4.583 1.797s3.122-.668 4.584-1.797c1.457-1.127 2.738-2.676 3.638-4.342a.237.237 0 0 0 0-.222c-.9-1.665-2.181-3.215-3.639-4.342C15.123 6.417 13.533 5.75 12 5.75s-3.122.668-4.584 1.797zM6.5 6.36C8.132 5.1 10.037 4.25 12 4.25c1.963 0 3.868.849 5.5 2.11 1.637 1.266 3.05 2.982 4.042 4.816a1.737 1.737 0 0 1 0 1.648c-.992 1.835-2.405 3.55-4.041 4.816-1.633 1.261-3.538 2.11-5.501 2.11-1.963 0-3.868-.849-5.5-2.11-1.637-1.266-3.05-2.982-4.042-4.816a1.737 1.737 0 0 1 0-1.648C3.45 9.341 4.863 7.625 6.5 6.36z"/><path fill-rule="evenodd" clip-rule="evenodd" d="M13.616 10.384a2.286 2.286 0 1 0-3.232 3.232 2.286 2.286 0 0 0 3.232-3.232zm1.01-1.01a3.714 3.714 0 1 0-5.252 5.252 3.714 3.714 0 0 0 5.252-5.252z"/></symbol><symbol viewBox="0 0 24 24" id="filter" xmlns="http://www.w3.org/2000/svg"><path fill-rule="evenodd" clip-rule="evenodd" d="M17.25 5a.75.75 0 0 1 .75-.75h3a.75.75 0 0 1 0 1.5h-3a.75.75 0 0 1-.75-.75zM2.25 5A.75.75 0 0 1 3 4.25h11a.75.75 0 0 1 0 1.5H3A.75.75 0 0 1 2.25 5zM9.25 12a.75.75 0 0 1 .75-.75h11a.75.75 0 0 1 0 1.5H10a.75.75 0 0 1-.75-.75zM2.25 12a.75.75 0 0 1 .75-.75h3a.75.75 0 0 1 0 1.5H3a.75.75 0 0 1-.75-.75zM17.25 19a.75.75 0 0 1 .75-.75h3a.75.75 0 0 1 0 1.5h-3a.75.75 0 0 1-.75-.75zM2.25 19a.75.75 0 0 1 .75-.75h11a.75.75 0 0 1 0 1.5H3a.75.75 0 0 1-.75-.75z"/><path fill-rule="evenodd" clip-rule="evenodd" d="M16.884 4.116a1.25 1.25 0 1 0-1.768 1.768 1.25 1.25 0 0 0 1.768-1.768zm1.06-1.061a2.75 2.75 0 1 0-3.89 3.89 2.75 2.75 0 0 0 3.89-3.89zM8.884 11.116a1.25 1.25 0 1 0-1.768 1.768 1.25 1.25 0 0 0 1.768-1.768zm1.06-1.061a2.75 2.75 0 1 0-3.89 3.889 2.75 2.75 0 0 0 3.89-3.888v-.001zM16.884 18.116a1.25 1.25 0 1 0-1.768 1.768 1.25 1.25 0 0 0 1.768-1.768zm1.06-1.061a2.75 2.75 0 1 0-3.89 3.889 2.75 2.75 0 0 0 3.89-3.889z"/></symbol><symbol viewBox="0 0 20 20" id="heart" xmlns="http://www.w3.org/2000/svg"><path fill-rule="evenodd" clip-rule="evenodd" d="M6.917 4.083c-2.118 0-3.667 2.03-3.667 4.05 0 .974.383 1.949 1.024 2.892.64.942 1.508 1.811 2.406 2.558.894.745 1.796 1.35 2.483 1.77.343.21.629.37.83.478l.007.004.008-.004c.2-.107.486-.268.83-.478a21.41 21.41 0 0 0 2.482-1.77c.897-.747 1.766-1.616 2.406-2.558.641-.944 1.024-1.918 1.024-2.892 0-2.02-1.549-4.05-3.667-4.05-1.234 0-2.035.608-2.515 1.165a.75.75 0 0 1-1.136 0c-.48-.557-1.28-1.165-2.515-1.165zM1.75 8.133c0-2.612 2.001-5.55 5.167-5.55 1.37 0 2.382.528 3.083 1.122a4.665 4.665 0 0 1 3.083-1.122c3.166 0 5.167 2.938 5.167 5.55 0 1.372-.538 2.638-1.283 3.735-.745 1.097-1.726 2.068-2.687 2.868a22.88 22.88 0 0 1-2.66 1.897c-.367.224-.679.4-.907.521a7.433 7.433 0 0 1-.392.194 1.068 1.068 0 0 1-.139.047.77.77 0 0 1-.363 0h-.001a.82.82 0 0 1-.139-.047 7.393 7.393 0 0 1-.393-.194 18.23 18.23 0 0 1-.905-.52 22.878 22.878 0 0 1-2.66-1.898c-.962-.8-1.943-1.77-2.688-2.869-.745-1.096-1.283-2.362-1.283-3.734z"/></symbol><symbol viewBox="0 0 16 16" id="info" xmlns="http://www.w3.org/2000/svg"><path fill-rule="evenodd" clip-rule="evenodd" d="M8 2.5a5.5 5.5 0 1 0 0 11 5.5 5.5 0 0 0 0-11zm0-1a6.5 6.5 0 1 0 0 13 6.5 6.5 0 1 0 0-13z"/><path fill-rule="evenodd" clip-rule="evenodd" d="M6.833 8a.5.5 0 0 1 .5-.5H8a.5.5 0 0 1 .5.5v3.333a.5.5 0 1 1-1 0V8.5h-.167a.5.5 0 0 1-.5-.5z"/><path d="M7.167 5.502a.666.666 0 1 1 1.331-.006.666.666 0 0 1-1.331.006z"/></symbol><symbol viewBox="0 0 20 20" id="links" xmlns="http://www.w3.org/2000/svg"><path fill-rule="evenodd" clip-rule="evenodd" d="M6.597 8.959a1.472 1.472 0 1 0-2.082 2.082A1.472 1.472 0 0 0 6.597 8.96zm1.06-1.06a2.973 2.973 0 1 0-4.203 4.203 2.973 2.973 0 0 0 4.204-4.204zM15.485 4.515a1.472 1.472 0 1 0-2.082 2.082 1.472 1.472 0 0 0 2.082-2.082zm1.061-1.061a2.973 2.973 0 1 0-4.204 4.204 2.973 2.973 0 0 0 4.204-4.204zM15.485 13.403a1.473 1.473 0 1 0-2.082 2.082 1.473 1.473 0 0 0 2.082-2.082zm1.061-1.06a2.973 2.973 0 1 0-4.204 4.203 2.973 2.973 0 0 0 4.204-4.204z"/><path fill-rule="evenodd" clip-rule="evenodd" d="M13.137 6.206a.75.75 0 0 1-.335 1.006L7.87 9.68a.75.75 0 0 1-.671-1.341l4.933-2.467a.75.75 0 0 1 1.006.335zM6.863 10.656a.75.75 0 0 1 1.006-.335l4.933 2.466a.75.75 0 1 1-.67 1.342l-4.934-2.467a.75.75 0 0 1-.335-1.006z"/></symbol><symbol viewBox="0 0 24 24" id="mark" xmlns="http://www.w3.org/2000/svg"><path fill-rule="evenodd" clip-rule="evenodd" d="M16.746 6.552a6.712 6.712 0 0 0-9.493 9.493l4.034 4.033a1.009 1.009 0 0 0 1.426 0l4.033-4.033a6.712 6.712 0 0 0 0-9.493zm1.06-1.06a8.212 8.212 0 0 1 0 11.614l-4.033 4.033c-.98.98-2.567.98-3.547 0l-4.033-4.033A8.212 8.212 0 1 1 17.807 5.492z"/><path fill-rule="evenodd" clip-rule="evenodd" d="M16.746 6.552a6.712 6.712 0 0 0-9.493 9.493l4.034 4.033a1.009 1.009 0 0 0 1.426 0l4.033-4.033a6.712 6.712 0 0 0 0-9.493zm1.06-1.06a8.212 8.212 0 0 1 0 11.614l-4.033 4.033c-.98.98-2.567.98-3.547 0l-4.033-4.033A8.212 8.212 0 1 1 17.807 5.492z"/><path fill-rule="evenodd" clip-rule="evenodd" d="M8.69 11.299a3.31 3.31 0 1 1 6.62 0 3.31 3.31 0 0 1-6.62 0zM12 9.489a1.81 1.81 0 1 0 0 3.62 1.81 1.81 0 0 0 0-3.62z"/></symbol><symbol viewBox="0 0 20 20" id="odnoklassniki" xmlns="http://www.w3.org/2000/svg"><g clip-path="url(#anclip0_14_6698)"><path d="M3.934 10.734c-.51 1.004.07 1.484 1.393 2.304 1.125.695 2.679.95 3.677 1.051L5.07 17.873c-1.145 1.098.698 2.859 1.842 1.784l3.098-2.987c1.186 1.14 2.322 2.234 3.098 2.992 1.144 1.078 2.987-.668 1.854-1.785-.085-.08-4.197-4.025-3.946-3.784 1.01-.101 2.541-.37 3.653-1.05v-.001c1.323-.825 1.903-1.304 1.4-2.308-.305-.57-1.125-1.047-2.216-.222 0 0-1.475 1.129-3.852 1.129-2.378 0-3.852-1.13-3.852-1.13-1.09-.828-1.914-.347-2.215.223z"/><path d="M10 10.118c2.898 0 5.264-2.265 5.264-5.053C15.264 2.265 12.898 0 10 0 7.1 0 4.733 2.265 4.733 5.065c0 2.788 2.367 5.053 5.266 5.053zm0-7.552c1.423 0 2.585 1.117 2.585 2.499 0 1.37-1.162 2.487-2.586 2.487S7.413 6.436 7.413 5.066c0-1.383 1.161-2.5 2.586-2.5z"/></g><defs><clipPath id="anclip0_14_6698"><path d="M0 0h20v20H0z"/></clipPath></defs></symbol><symbol viewBox="0 0 20 20" id="p" xmlns="http://www.w3.org/2000/svg"><path d="M6.395 17V4.556h4.435c.969 0 1.77.176 2.406.528a3.435 3.435 0 0 1 1.428 1.446c.316.608.475 1.293.475 2.054 0 .766-.16 1.455-.48 2.066-.317.608-.795 1.09-1.435 1.446-.636.353-1.436.529-2.4.529h-3.05v-1.592h2.88c.612 0 1.108-.105 1.489-.316.38-.215.66-.506.838-.875.179-.369.268-.788.268-1.258s-.09-.887-.268-1.252a1.917 1.917 0 0 0-.844-.856c-.381-.207-.883-.31-1.507-.31H8.272V17H6.395z"/></symbol><symbol viewBox="0 0 20 20" id="pack" xmlns="http://www.w3.org/2000/svg"><g opacity=".9" fill-rule="evenodd" clip-rule="evenodd"><path d="M5.417 12.417a.75.75 0 0 1 .75.75v1.572l.001.006a.317.317 0 0 0 .078.129l3.218 1.98c.35.195.806.195 1.154 0l3.224-1.984a.207.207 0 0 0 .062-.06c.005-.009.012-.024.012-.06v-1.583a.75.75 0 0 1 1.5 0v1.583c0 .624-.327 1.092-.75 1.374l-.023.015-3.25 2a2.712 2.712 0 0 1-2.703 0l-3.25-2a1.712 1.712 0 0 1-.57-.627 1.637 1.637 0 0 1-.204-.762v-1.583a.75.75 0 0 1 .75-.75zM9.6 4.199a.75.75 0 0 1 .8 0l4.5 2.833a.75.75 0 0 1 .008 1.264l-4.5 2.917a.75.75 0 0 1-.816 0l-4.5-2.917A.75.75 0 0 1 5.1 7.032l4.5-2.833zM6.893 7.676L10 9.69l3.107-2.014L10 5.72 6.893 7.676z"/><path d="M4.969 3.144L2.496 4.71c-.022.016-.038.042-.038.082 0 .041.017.068.04.083l3.414 2.249a.75.75 0 0 1-.01 1.26l-3.406 2.16c-.022.015-.038.04-.038.081 0 .04.016.066.038.082l2.489 1.576.014.01c.228.152.58.185.948-.02l3.65-2.322a.75.75 0 0 1 .795-.007l3.667 2.25.024.015c.228.152.58.185.948-.02l2.473-1.566c.022-.015.038-.041.038-.081s-.016-.066-.038-.082L14.098 8.3a.75.75 0 0 1 0-1.267l3.406-2.16c.022-.015.038-.041.038-.081s-.016-.066-.038-.082l-2.489-1.576-.014-.01c-.228-.152-.58-.185-.948.02l-3.65 2.322a.75.75 0 0 1-.806 0L5.931 3.133l-.014-.009c-.228-.152-.58-.185-.948.02zM6.742 1.87c-.768-.508-1.74-.474-2.53-.022a.745.745 0 0 0-.03.017l-2.5 1.584-.015.01a1.606 1.606 0 0 0 0 2.664l2.451 1.614-2.436 1.545-.015.01a1.606 1.606 0 0 0 0 2.664l.015.01 2.493 1.579c.768.507 1.74.474 2.53.022a.864.864 0 0 0 .03-.019l3.272-2.081 3.257 1.998c.767.504 1.735.47 2.525.019a.73.73 0 0 0 .029-.018l2.5-1.583.015-.01a1.606 1.606 0 0 0 0-2.665l-.015-.01L15.9 7.668l2.418-1.534.015-.009a1.606 1.606 0 0 0 0-2.665l-.015-.01-2.493-1.578c-.768-.508-1.74-.474-2.53-.022a.814.814 0 0 0-.031.018L10 3.944 6.742 1.871z"/></g></symbol><symbol viewBox="0 0 24 24" id="pdf" xmlns="http://www.w3.org/2000/svg"><path fill-rule="evenodd" clip-rule="evenodd" d="M4.25 5A2.75 2.75 0 0 1 7 2.25h7.172c.73 0 1.429.29 1.944.806l2.828 2.828a2.75 2.75 0 0 1 .806 1.944V19A2.75 2.75 0 0 1 17 21.75H7A2.75 2.75 0 0 1 4.25 19V5zM7 3.75c-.69 0-1.25.56-1.25 1.25v14c0 .69.56 1.25 1.25 1.25h10c.69 0 1.25-.56 1.25-1.25V7.828c0-.33-.132-.65-.366-.884l-2.828-2.828a1.25 1.25 0 0 0-.884-.366H7z"/><path fill-rule="evenodd" clip-rule="evenodd" d="M14 2.25a.75.75 0 0 1 .75.75v4c0 .138.112.25.25.25h4a.75.75 0 0 1 0 1.5h-4A1.75 1.75 0 0 1 13.25 7V3a.75.75 0 0 1 .75-.75zM9.59 16.55a.75.75 0 0 1 .75-.75h3.32a.75.75 0 1 1 0 1.5h-3.32a.75.75 0 0 1-.75-.75zM11.583 11.75v.834h.834v-.834h-.834zm-1.5-.167c0-.736.597-1.333 1.333-1.333h1.168c.736 0 1.333.597 1.333 1.333v1.168c0 .736-.597 1.333-1.333 1.333h-1.17a1.334 1.334 0 0 1-1.331-1.333v-1.168z"/><path fill-rule="evenodd" clip-rule="evenodd" d="M8.75 16.416v.834h.834v-.834H8.75zm-1.5-.167c0-.736.597-1.333 1.333-1.333h1.168c.736 0 1.333.597 1.333 1.333v1.168c0 .736-.597 1.333-1.333 1.333H8.583a1.333 1.333 0 0 1-1.333-1.333v-1.168zM14.417 16.416v.834h.834v-.834h-.834zm-1.5-.167c0-.736.597-1.333 1.333-1.333h1.168c.736 0 1.333.597 1.333 1.333v1.17a1.334 1.334 0 0 1-1.334 1.331h-1.168a1.333 1.333 0 0 1-1.332-1.333v-1.168z"/><path fill-rule="evenodd" clip-rule="evenodd" d="M12.325 12.678a.75.75 0 0 1 1.036.228l1.51 2.36a.75.75 0 1 1-1.263.808l-1.51-2.36a.75.75 0 0 1 .227-1.036z"/><path fill-rule="evenodd" clip-rule="evenodd" d="M11.674 12.678a.75.75 0 0 1 .228 1.036l-1.51 2.36a.75.75 0 1 1-1.264-.808l1.51-2.36a.75.75 0 0 1 1.036-.228z"/></symbol><symbol viewBox="0 0 20 20" id="percent" xmlns="http://www.w3.org/2000/svg"><path fill-rule="evenodd" clip-rule="evenodd" d="M10.004 2a8.042 8.042 0 0 1 7.37 4.824.664.664 0 1 1-1.216.531 6.714 6.714 0 0 0-6.154-4.027 6.716 6.716 0 0 0-6.304 4.4l.602-.437a.664.664 0 1 1 .78 1.073L3.055 9.84a.664.664 0 0 1-1.05-.603 8.04 8.04 0 0 1 8-7.237M17.713 10.204c.225.13.354.38.328.64a8.041 8.041 0 0 1-15.372 2.413.664.664 0 0 1 1.216-.532 6.715 6.715 0 0 0 12.468-.398l-.653.467a.664.664 0 1 1-.771-1.08l2.065-1.476a.664.664 0 0 1 .719-.034z"/><path d="M11.848 12.254a.369.369 0 1 0 0-.737.369.369 0 0 0 0 .737zM8.16 8.565a.369.369 0 1 0 0-.738.369.369 0 0 0 0 .738z"/><path fill-rule="evenodd" clip-rule="evenodd" d="M7.507 7.544a.922.922 0 1 1 1.305 1.304.922.922 0 0 1-1.305-1.304zm.652.837a.184.184 0 1 0 0-.369.184.184 0 0 0 0 .369zm3.037 2.852a.922.922 0 1 1 1.305 1.305.922.922 0 0 1-1.305-1.305zm.652.837a.185.185 0 1 0 0-.37.185.185 0 0 0 0 .37zM12.687 7.358c.259.26.259.68 0 .939L8.26 12.724a.664.664 0 0 1-.939-.94l4.427-4.426c.259-.26.68-.26.939 0z"/></symbol><symbol viewBox="0 0 20 20" id="printer" xmlns="http://www.w3.org/2000/svg"><path fill-rule="evenodd" clip-rule="evenodd" d="M6.667 3.25a.084.084 0 0 0-.083.083v3.334a.75.75 0 0 1-1.5 0V3.333c0-.874.709-1.583 1.583-1.583h6.667c.874 0 1.583.71 1.583 1.583v3.334a.75.75 0 0 1-1.5 0V3.333a.084.084 0 0 0-.083-.083H6.667z"/><path fill-rule="evenodd" clip-rule="evenodd" d="M4.167 7.417a.916.916 0 0 0-.917.916V12.5c0 .507.41.917.917.917h1.666a.75.75 0 0 1 0 1.5H4.167A2.416 2.416 0 0 1 1.75 12.5V8.333a2.416 2.416 0 0 1 2.417-2.416h11.666a2.416 2.416 0 0 1 2.417 2.416V12.5a2.416 2.416 0 0 1-2.417 2.417h-1.666a.75.75 0 0 1 0-1.5h1.666c.507 0 .917-.41.917-.917V8.333a.916.916 0 0 0-.917-.916H4.167z"/><path fill-rule="evenodd" clip-rule="evenodd" d="M5.083 11.5a.75.75 0 0 1 .75-.75h8.334a.75.75 0 0 1 .75.75v5.167c0 .874-.71 1.583-1.583 1.583H6.667c-.874 0-1.583-.71-1.583-1.583V11.5zm1.5.75v4.417c0 .045.038.083.084.083h6.667a.084.084 0 0 0 .083-.083V12.25H6.584zM5.083 9.167a.75.75 0 0 1 .75-.75h.834a.75.75 0 1 1 0 1.5h-.833a.75.75 0 0 1-.75-.75z"/></symbol><symbol viewBox="0 0 27 38" id="question" xmlns="http://www.w3.org/2000/svg"><path d="M8.607 25.906v-.84c0-1.924.152-3.459.455-4.602.303-1.143.752-2.059 1.347-2.747a9.947 9.947 0 0 1 2.188-1.89c.746-.49 1.411-.962 1.994-1.417.595-.455 1.062-.94 1.4-1.453.35-.513.525-1.096.525-1.75 0-.583-.14-1.096-.42-1.54a2.86 2.86 0 0 0-1.137-1.032 3.441 3.441 0 0 0-1.592-.367c-.63 0-1.214.146-1.75.437a3.52 3.52 0 0 0-1.278 1.208c-.315.513-.472 1.108-.472 1.784H.907c.024-2.566.607-4.648 1.75-6.246 1.144-1.61 2.66-2.788 4.55-3.535 1.89-.758 3.966-1.137 6.23-1.137 2.496 0 4.724.367 6.684 1.102 1.96.723 3.505 1.82 4.637 3.29 1.132 1.458 1.697 3.284 1.697 5.477 0 1.411-.245 2.654-.735 3.727a8.854 8.854 0 0 1-2.012 2.817c-.851.805-1.849 1.54-2.992 2.205-.84.49-1.546.997-2.117 1.522a5.13 5.13 0 0 0-1.295 1.767c-.292.654-.438 1.447-.438 2.38v.84H8.607zm4.27 11.76c-1.354 0-2.514-.473-3.483-1.418-.956-.957-1.429-2.118-1.417-3.482-.012-1.33.46-2.468 1.417-3.413.969-.945 2.13-1.417 3.483-1.417 1.283 0 2.414.473 3.394 1.417.992.945 1.494 2.083 1.505 3.413a4.711 4.711 0 0 1-.717 2.484 5.279 5.279 0 0 1-1.785 1.768 4.65 4.65 0 0 1-2.397.647z"/></symbol><symbol viewBox="0 0 20 20" id="search" xmlns="http://www.w3.org/2000/svg"><path fill-rule="evenodd" clip-rule="evenodd" d="M12.565 6.229a4.48 4.48 0 1 0-6.336 6.335 4.48 4.48 0 0 0 6.336-6.335zm1.06-1.061a5.98 5.98 0 1 0-8.457 8.457 5.98 5.98 0 0 0 8.457-8.457z"/><path fill-rule="evenodd" clip-rule="evenodd" d="M12.561 12.562a.75.75 0 0 1 1.061 0l2.742 2.741a.75.75 0 0 1-1.061 1.06l-2.742-2.74a.75.75 0 0 1 0-1.061z"/></symbol><symbol viewBox="0 0 24 24" id="tel" xmlns="http://www.w3.org/2000/svg"><path fill-rule="evenodd" clip-rule="evenodd" d="M5 7.224c1.013.738 1.779 1.775 2.431 2.727l.511.752a1.205 1.205 0 0 1-.142 1.533l-1.087 1.086.115.244A8.13 8.13 0 0 0 8.32 15.68c.503.495 1.07.92 1.686 1.266l.294.158.262.13.117.053 1.086-1.086a1.204 1.204 0 0 1 1.537-.137l.812.563c.924.649 1.888 1.388 2.637 2.348a1.179 1.179 0 0 1 .152 1.19c-.671 1.565-2.369 2.897-4.134 2.832l-.24-.013-.187-.016-.207-.024-.225-.03-.245-.041-.26-.052-.278-.061-.293-.076-.309-.088-.322-.104c-1.48-.502-3.357-1.487-5.284-3.413-1.925-1.926-2.911-3.803-3.413-5.282l-.104-.322-.088-.309-.076-.293-.062-.277a9.399 9.399 0 0 1-.05-.261l-.04-.245-.033-.225-.023-.207-.016-.186-.013-.24c-.065-1.76 1.282-3.47 2.84-4.137A1.178 1.178 0 0 1 5 7.224zm-.742 1.449c-.86.448-1.691 1.474-1.654 2.5l.016.263.018.164.023.184.032.203.041.222.052.239.064.256.077.272.092.287c.033.098.068.198.107.3l.123.314.141.326c.504 1.108 1.324 2.404 2.665 3.744 1.34 1.34 2.637 2.16 3.744 2.664l.326.14.314.124c.103.039.203.074.301.108l.287.09.272.078.256.064.239.052.222.04.203.033.185.024.163.016.263.016c1.013.038 2.047-.79 2.494-1.637-.57-.669-1.28-1.218-2.06-1.77l-.6-.418-.152.16-.325.354-.173.181c-.47.479-1.018.885-1.675.62l-.18-.076-.222-.1-.123-.058-.271-.136-.298-.16a9.51 9.51 0 0 1-2.057-1.542 9.507 9.507 0 0 1-1.542-2.057l-.16-.296-.137-.272-.157-.345-.077-.182c-.25-.616.094-1.136.532-1.587l.18-.176.446-.411.16-.152-.379-.556c-.563-.817-1.114-1.554-1.797-2.108z"/><path fill-rule="evenodd" clip-rule="evenodd" d="M16.322 2.75a4.929 4.929 0 0 0-4.47 7.01.75.75 0 0 1 .054.47l-.496 2.377 2.37-.504a.75.75 0 0 1 .472.054c.602.279 1.269.44 1.975.455a.75.75 0 0 1 .095-.006 4.93 4.93 0 0 0 0-9.856zm.115 11.355a6.428 6.428 0 0 0-.115-12.855 6.429 6.429 0 0 0-5.933 8.91l-.682 3.266a.75.75 0 0 0 .89.887l3.259-.692a6.418 6.418 0 0 0 2.471.492.752.752 0 0 0 .11-.008z"/><path fill-rule="evenodd" clip-rule="evenodd" d="M13.071 7.224a.8.8 0 1 1 1.132 1.132.8.8 0 0 1-1.132-1.132zM15.677 7.224a.8.8 0 1 1 1.132 1.132.8.8 0 0 1-1.132-1.132zM18.282 7.224a.8.8 0 1 1 1.132 1.132.8.8 0 0 1-1.132-1.132z"/></symbol><symbol viewBox="0 0 24 24" id="tel2" xmlns="http://www.w3.org/2000/svg"><path fill-rule="evenodd" clip-rule="evenodd" d="M7.5 3.252c1.14.83 2.001 1.996 2.735 3.068l.575.846a1.356 1.356 0 0 1-.16 1.724l-1.223 1.222.129.274c.316.64.86 1.56 1.68 2.38a8.899 8.899 0 0 0 1.896 1.424l.331.178.295.146.132.06 1.221-1.222a1.354 1.354 0 0 1 1.73-.154l.914.633c1.039.73 2.123 1.563 2.966 2.642a1.325 1.325 0 0 1 .17 1.339c-.754 1.76-2.664 3.26-4.65 3.185l-.27-.014-.21-.018-.233-.027-.253-.034-.275-.046-.294-.058-.312-.07-.33-.084-.347-.1-.363-.116c-1.664-.565-3.776-1.674-5.944-3.84-2.166-2.166-3.275-4.278-3.84-5.942l-.117-.363-.099-.347-.085-.33-.07-.311c-.02-.098-.04-.196-.057-.294l-.045-.275-.036-.254-.026-.232-.018-.21-.014-.27c-.073-1.98 1.442-3.903 3.195-4.653a1.326 1.326 0 0 1 1.302.143zm-.835 1.63c-.967.504-1.903 1.658-1.86 2.813l.018.295.02.185.026.208.036.228.046.25.058.268.073.288.086.306.103.323c.038.11.077.222.12.338l.14.353.158.367c.566 1.246 1.49 2.704 2.998 4.211 1.507 1.507 2.966 2.431 4.212 2.997l.367.159.353.139c.116.043.229.082.338.12l.323.103.307.087.287.072.269.058.25.046.229.036.207.027.184.018.296.018c1.14.043 2.302-.887 2.805-1.841-.642-.753-1.439-1.37-2.317-1.992l-.675-.47-.171.18-.366.399-.194.204c-.528.538-1.145.995-1.884.697l-.204-.086-.249-.112-.139-.066-.304-.152-.335-.18a10.7 10.7 0 0 1-2.314-1.736 10.697 10.697 0 0 1-1.736-2.313l-.18-.334-.153-.305-.177-.388-.087-.205c-.28-.694.106-1.279.599-1.785l.202-.199.502-.462.18-.171-.426-.625c-.634-.92-1.253-1.749-2.022-2.372z"/></symbol><symbol viewBox="0 0 20 20" id="telegram" xmlns="http://www.w3.org/2000/svg"><path d="M8.222 12.075l-.273 3.641c.39 0 .56-.159.763-.35l1.834-1.66 3.798 2.636c.697.367 1.188.174 1.376-.607l2.493-11.07c.222-.975-.372-1.357-1.05-1.118L2.506 8.863c-1 .368-.985.896-.17 1.136l3.747 1.104 8.704-5.16c.41-.256.782-.114.476.143l-7.04 5.989z"/></symbol><symbol viewBox="0 0 24 24" id="user" xmlns="http://www.w3.org/2000/svg"><path fill-rule="evenodd" clip-rule="evenodd" d="M17.834 6.166A8.25 8.25 0 1 0 6.166 17.833 8.25 8.25 0 0 0 17.834 6.167zm1.06-1.06c3.808 3.807 3.808 9.98 0 13.788-3.807 3.808-9.98 3.808-13.788 0-3.808-3.807-3.808-9.98 0-13.788 3.807-3.808 9.98-3.808 13.788 0z"/><path fill-rule="evenodd" clip-rule="evenodd" d="M5.959 19.104c.487-2.335 3.156-3.854 6.04-3.854 2.885 0 5.555 1.52 6.042 3.854a.75.75 0 1 1-1.468.306c-.281-1.345-2.048-2.66-4.573-2.66-2.526 0-4.292 1.315-4.573 2.66a.75.75 0 0 1-1.468-.306zM13.59 8.409a2.25 2.25 0 1 0-3.181 3.182 2.25 2.25 0 0 0 3.182-3.182zm1.062-1.06a3.75 3.75 0 1 0-5.304 5.303 3.75 3.75 0 0 0 5.303-5.304z"/></symbol><symbol viewBox="0 0 20 20" id="viber" xmlns="http://www.w3.org/2000/svg"><path d="M12.278 2.609h-3.2c-3.08 0-5.6 2.52-5.6 5.6v2.4c0 2.16 1.26 4.14 3.2 5.06v2.68c0 .24.3.36.46.18l2.32-2.32h2.82c3.08 0 5.6-2.52 5.6-5.6v-2.4c0-3.08-2.52-5.6-5.6-5.6zm2.1 10.5l-.82.8c-.86.84-3.08-.12-5.04-2.12s-2.82-4.24-2-5.08l.8-.8c.3-.3.8-.28 1.14.02l1.16 1.2c.42.42.24 1.14-.3 1.3-.38.12-.64.54-.52.92.2.88 1.32 2 2.16 2.22.38.08.8-.12.94-.5.18-.54.9-.7 1.3-.28l1.16 1.2c.32.28.32.78.02 1.12zm-2.98-6.7c-.08 0-.16 0-.24.02-.14.02-.28-.1-.3-.24-.02-.14.1-.28.24-.3.1-.02.2-.02.3-.02 1.46 0 2.66 1.2 2.66 2.66 0 .1 0 .2-.02.3-.02.14-.16.26-.3.24-.14-.02-.26-.16-.24-.3 0-.08.02-.16.02-.24.02-1.16-.94-2.12-2.12-2.12zm1.6 2.14c0 .14-.12.26-.26.26s-.26-.12-.26-.26c0-.58-.48-1.06-1.06-1.06-.14 0-.26-.12-.26-.26s.12-.26.26-.26c.86-.02 1.58.7 1.58 1.58zm2.04.86a.28.28 0 0 1-.34.2.257.257 0 0 1-.18-.32 3 3 0 0 0 .08-.74c0-1.76-1.44-3.2-3.2-3.2h-.24c-.14 0-.28-.1-.28-.24 0-.14.1-.28.24-.28.1 0 .2-.02.28-.02 2.06 0 3.74 1.68 3.74 3.74 0 .28-.04.58-.1.86z"/></symbol><symbol viewBox="0 0 30 30" id="view-grid" xmlns="http://www.w3.org/2000/svg"><path fill-rule="evenodd" clip-rule="evenodd" d="M3 3.75A.75.75 0 0 1 3.75 3h8.75a.75.75 0 0 1 .75.75v8.75a.75.75 0 0 1-.75.75H3.75A.75.75 0 0 1 3 12.5V3.75zm1.5.75v7.25h7.25V4.5H4.5zM16.75 3.75A.75.75 0 0 1 17.5 3h8.75a.75.75 0 0 1 .75.75v8.75a.75.75 0 0 1-.75.75H17.5a.75.75 0 0 1-.75-.75V3.75zm1.5.75v7.25h7.25V4.5h-7.25zM3 17.5a.75.75 0 0 1 .75-.75h8.75a.75.75 0 0 1 .75.75v8.75a.75.75 0 0 1-.75.75H3.75a.75.75 0 0 1-.75-.75V17.5zm1.5.75v7.25h7.25v-7.25H4.5zM16.75 17.5a.75.75 0 0 1 .75-.75h8.75a.75.75 0 0 1 .75.75v8.75a.75.75 0 0 1-.75.75H17.5a.75.75 0 0 1-.75-.75V17.5zm1.5.75v7.25h7.25v-7.25h-7.25z"/></symbol><symbol viewBox="0 0 30 30" id="view-list" xmlns="http://www.w3.org/2000/svg"><path fill-rule="evenodd" clip-rule="evenodd" d="M13.75 4.5a.5.5 0 0 0-.5.5v2.5a.5.5 0 0 0 .5.5H25a.5.5 0 0 0 .5-.5V5a.5.5 0 0 0-.5-.5H13.75zm-2 .5a2 2 0 0 1 2-2H25a2 2 0 0 1 2 2v2.5a2 2 0 0 1-2 2H13.75a2 2 0 0 1-2-2V5zM13.75 13.25a.5.5 0 0 0-.5.5v2.5a.5.5 0 0 0 .5.5H25a.5.5 0 0 0 .5-.5v-2.5a.5.5 0 0 0-.5-.5H13.75zm-2 .5a2 2 0 0 1 2-2H25a2 2 0 0 1 2 2v2.5a2 2 0 0 1-2 2H13.75a2 2 0 0 1-2-2v-2.5zM13.75 22a.5.5 0 0 0-.5.5V25a.5.5 0 0 0 .5.5H25a.5.5 0 0 0 .5-.5v-2.5a.5.5 0 0 0-.5-.5H13.75zm-2 .5a2 2 0 0 1 2-2H25a2 2 0 0 1 2 2V25a2 2 0 0 1-2 2H13.75a2 2 0 0 1-2-2v-2.5zM5 4.5a.5.5 0 0 0-.5.5v2.5A.5.5 0 0 0 5 8h2.5a.5.5 0 0 0 .5-.5V5a.5.5 0 0 0-.5-.5H5zM3 5a2 2 0 0 1 2-2h2.5a2 2 0 0 1 2 2v2.5a2 2 0 0 1-2 2H5a2 2 0 0 1-2-2V5zM5 13.25a.5.5 0 0 0-.5.5v2.5a.5.5 0 0 0 .5.5h2.5a.5.5 0 0 0 .5-.5v-2.5a.5.5 0 0 0-.5-.5H5zm-2 .5a2 2 0 0 1 2-2h2.5a2 2 0 0 1 2 2v2.5a2 2 0 0 1-2 2H5a2 2 0 0 1-2-2v-2.5zM5 22a.5.5 0 0 0-.5.5V25a.5.5 0 0 0 .5.5h2.5A.5.5 0 0 0 8 25v-2.5a.5.5 0 0 0-.5-.5H5zm-2 .5a2 2 0 0 1 2-2h2.5a2 2 0 0 1 2 2V25a2 2 0 0 1-2 2H5a2 2 0 0 1-2-2v-2.5z"/></symbol><symbol viewBox="0 0 20 20" id="vk" xmlns="http://www.w3.org/2000/svg"><g clip-path="url(#bcclip0_14_6687)"><path d="M17.733 9.065c.284-.368.51-.663.677-.886 1.2-1.596 1.721-2.616 1.562-3.06l-.063-.105c-.041-.063-.15-.12-.322-.172-.174-.052-.396-.06-.667-.026l-2.999.021a.854.854 0 0 0-.343.036l-.053.026-.041.032a.459.459 0 0 0-.114.109.707.707 0 0 0-.105.182 16.99 16.99 0 0 1-1.114 2.343c-.257.43-.493.804-.708 1.12a5.34 5.34 0 0 1-.541.697c-.146.15-.278.27-.396.36-.118.09-.208.128-.27.114a5.164 5.164 0 0 1-.178-.042.687.687 0 0 1-.234-.255 1.142 1.142 0 0 1-.12-.406 4.407 4.407 0 0 1-.036-.422 8.435 8.435 0 0 1 .005-.5c.007-.215.01-.36.01-.437 0-.263.006-.55.016-.859l.026-.734c.007-.18.01-.371.01-.573 0-.2-.012-.359-.036-.474a1.662 1.662 0 0 0-.11-.333.56.56 0 0 0-.213-.25 1.203 1.203 0 0 0-.349-.14c-.368-.084-.836-.128-1.406-.136-1.29-.013-2.12.07-2.488.25-.146.077-.278.181-.396.313-.125.153-.142.236-.052.25.417.062.711.212.885.448l.063.124c.048.091.097.25.145.48.049.229.08.482.094.76.035.506.035.94 0 1.301-.035.362-.067.643-.099.844a1.69 1.69 0 0 1-.14.489 2.045 2.045 0 0 1-.125.23.183.183 0 0 1-.052.051.782.782 0 0 1-.281.052c-.098 0-.216-.049-.354-.146a2.463 2.463 0 0 1-.433-.4 5.329 5.329 0 0 1-.505-.714A12.365 12.365 0 0 1 5.3 7.544l-.166-.302a25.544 25.544 0 0 1-.427-.848c-.18-.372-.34-.73-.48-1.078a.69.69 0 0 0-.25-.333l-.051-.032a.709.709 0 0 0-.167-.088 1.122 1.122 0 0 0-.24-.068l-2.853.02c-.291 0-.489.067-.593.199l-.042.062A.336.336 0 0 0 0 5.243c0 .077.02.17.063.281.416.98.87 1.923 1.358 2.832.49.91.915 1.642 1.276 2.198s.729 1.08 1.104 1.572c.375.493.623.809.744.947.122.14.217.244.287.313l.26.25c.167.167.411.366.734.599.323.233.68.462 1.073.687.392.226.849.41 1.37.552.52.143 1.026.2 1.52.172h1.197c.243-.021.427-.097.552-.23l.041-.051a.704.704 0 0 0 .078-.193c.025-.086.037-.182.037-.286a3.428 3.428 0 0 1 .068-.807c.052-.24.11-.42.177-.542a1.333 1.333 0 0 1 .4-.458.829.829 0 0 1 .084-.036c.166-.056.363-.002.588.161.226.164.438.364.636.604.197.24.435.508.713.807.277.299.52.52.729.666l.208.126c.139.083.32.16.541.229.223.069.417.087.584.052l2.665-.042c.264 0 .469-.043.615-.13.145-.086.232-.183.26-.287a.808.808 0 0 0 .005-.353 1.289 1.289 0 0 0-.072-.276 1.408 1.408 0 0 0-.068-.13c-.348-.625-1.01-1.392-1.99-2.302l-.02-.02-.01-.01-.01-.01h-.011c-.445-.425-.726-.71-.844-.855-.215-.277-.264-.559-.145-.843.082-.216.395-.67.936-1.365z"/></g><defs><clipPath id="bcclip0_14_6687"><path d="M0 0h20v20H0z"/></clipPath></defs></symbol><symbol viewBox="0 0 20 20" id="whatsapp" xmlns="http://www.w3.org/2000/svg"><path d="M10 1.667a8.333 8.333 0 1 1-4.19 15.537l-4.14 1.13 1.127-4.14A8.333 8.333 0 0 1 10 1.666zM7.16 6.083l-.166.007a.8.8 0 0 0-.31.083c-.09.051-.173.115-.245.19-.1.094-.157.176-.217.255-.309.4-.475.893-.472 1.399.002.408.108.805.275 1.177.34.752.902 1.547 1.642 2.285.178.178.353.356.541.522a7.875 7.875 0 0 0 3.2 1.705l.474.072c.154.008.308-.003.463-.01.243-.013.48-.079.694-.193.11-.056.216-.118.32-.183 0 0 .035-.024.104-.075.112-.084.181-.143.275-.24a.954.954 0 0 0 .175-.252c.064-.136.13-.395.156-.611.02-.165.014-.255.012-.31-.003-.09-.078-.182-.159-.222l-.485-.217s-.724-.316-1.168-.518a.415.415 0 0 0-.146-.034.4.4 0 0 0-.316.106c-.004-.002-.06.046-.662.776a.292.292 0 0 1-.307.108 1.206 1.206 0 0 1-.159-.055c-.103-.043-.139-.06-.21-.09a5.018 5.018 0 0 1-1.312-.836c-.105-.091-.203-.191-.303-.288a5.248 5.248 0 0 1-.85-1.057l-.049-.079a.77.77 0 0 1-.085-.17c-.032-.123.05-.221.05-.221s.203-.222.297-.342c.092-.117.17-.23.22-.311.098-.158.129-.32.077-.447a69.393 69.393 0 0 0-.723-1.7c-.05-.112-.195-.192-.328-.208a3.692 3.692 0 0 0-.135-.013 2.82 2.82 0 0 0-.336.003l.168-.007v.001z"/></symbol><symbol viewBox="0 0 20 20" id="yandex" xmlns="http://www.w3.org/2000/svg"><path d="M13.36 2h-2.274C8.783 2 6.459 3.7 6.459 7.5c0 1.968.834 3.501 2.363 4.373l-2.799 5.065a.727.727 0 0 0-.009.726c.124.21.35.336.606.336h1.415c.322 0 .573-.155.693-.428l2.624-5.132h.191v4.92c0 .347.293.64.64.64h1.236c.388 0 .66-.271.66-.66V2.7c0-.412-.296-.7-.72-.7zm-1.817 8.16h-.337c-1.31 0-2.092-1.069-2.092-2.86 0-2.227.988-3.02 1.912-3.02h.517v5.88z"/></symbol></svg>