<svg width="32" height="32" viewBox="0 0 32 32" fill="none" xmlns="http://www.w3.org/2000/svg">
<path d="M16 32C24.8366 32 32 24.8366 32 16C32 7.16344 24.8366 0 16 0C7.16344 0 0 7.16344 0 16C0 24.8366 7.16344 32 16 32Z" fill="url(#paint0_linear_151_328)"/>
<path d="M13.0669 23.3337C12.5486 23.3337 12.6367 23.1379 12.4579 22.6444L10.9336 17.6278L22.6669 10.667" fill="#C8DAEA"/>
<path d="M13.0664 23.333C13.4664 23.333 13.6431 23.15 13.8664 22.933L15.9997 20.8586L13.3387 19.2539" fill="#A9C9DD"/>
<path d="M13.3396 19.2547L19.7876 24.0185C20.5234 24.4245 21.0545 24.2143 21.2377 23.3354L23.8624 10.967C24.1311 9.88963 23.4517 9.40099 22.7478 9.72056L7.33582 15.6634C6.2838 16.0853 6.28994 16.6722 7.14406 16.9338L11.0991 18.1682L20.2555 12.3915C20.6878 12.1294 21.0845 12.2703 20.7589 12.5593" fill="url(#paint1_linear_151_328)"/>
<defs>
<linearGradient id="paint0_linear_151_328" x1="12.0016" y1="1.3344" x2="4.0016" y2="20" gradientUnits="userSpaceOnUse">
<stop stop-color="#37AEE2"/>
<stop offset="1" stop-color="#1E96C8"/>
</linearGradient>
<linearGradient id="paint1_linear_151_328" x1="13.998" y1="16.9828" x2="15.7076" y2="22.5128" gradientUnits="userSpaceOnUse">
<stop stop-color="#EFF7FC"/>
<stop offset="1" stop-color="white"/>
</linearGradient>
</defs>
</svg>
