<svg width="32" height="32" viewBox="0 0 32 32" fill="none" xmlns="http://www.w3.org/2000/svg">
<path d="M0 16C0 7.16344 7.16344 0 16 0C24.8366 0 32 7.16344 32 16C32 24.8366 24.8366 32 16 32C7.16344 32 0 24.8366 0 16Z" fill="#6FD454"/>
<path d="M11.3143 8.03265C11.5086 8.01633 11.6751 8.06367 11.7829 8.24164C12.0245 8.63348 12.2678 9.02532 12.498 9.42696C12.7641 9.89064 13.009 10.3674 13.2702 10.836C13.3372 10.9617 13.4302 11.076 13.5086 11.1968C13.5804 11.3111 13.649 11.4286 13.716 11.5429C13.8531 11.8025 13.8466 12.0637 13.6425 12.2711C13.3519 12.5682 13.0319 12.8442 12.7233 13.1266C12.4653 13.3634 12.1976 13.5903 11.9461 13.8319C11.7502 14.0213 11.6996 14.2581 11.8318 14.5079C12.0359 14.8899 12.2384 15.272 12.4621 15.6458C13.2915 17.0287 14.3511 18.2043 15.6899 19.1104C16.2058 19.4614 16.743 19.7831 17.285 20.09C17.796 20.379 17.9952 20.33 18.392 19.8875C18.7609 19.4777 19.1169 19.0614 19.4842 18.6483C19.5724 18.5487 19.6785 18.4606 19.7814 18.3757C19.9904 18.1994 20.2189 18.1798 20.4589 18.3006C20.5259 18.3332 20.5977 18.3626 20.6565 18.4051C21.2932 18.8606 22.0051 19.1822 22.6777 19.5692C23.0386 19.7765 23.3896 19.9986 23.7439 20.2108C23.9349 20.3235 24.0116 20.4884 23.9986 20.7153C23.9627 21.3537 23.8565 21.9806 23.4859 22.5194C23.3308 22.7431 23.1104 22.939 22.8884 23.0974C22.2728 23.5284 21.5855 23.7946 20.854 23.9578C20.1895 24.1064 19.5267 24.0525 18.8899 23.8533C17.6605 23.4745 16.4491 23.0403 15.3339 22.3823C14.3217 21.7831 13.4009 21.0598 12.5486 20.2516C11.4694 19.2247 10.5061 18.1047 9.72732 16.8295C9.21956 16.0018 8.8571 15.1103 8.52893 14.2009C8.32975 13.6523 8.13383 13.1087 8.04566 12.5274C7.94443 11.8695 8.01464 11.236 8.22526 10.6123C8.41465 10.049 8.65139 9.51023 9.00894 9.02859C9.28976 8.6547 9.64079 8.38041 10.0947 8.25796C10.4588 8.16164 10.8261 8.0849 11.1918 8C11.2392 8.03755 11.2767 8.03755 11.3143 8.03265Z" fill="white"/>
</svg>
